<?xml version="1.0" encoding="UTF-8" standalone="no"?>
<svg xmlns:osb="http://www.openswatchbook.org/uri/2009/osb"
   xmlns:dc="http://purl.org/dc/elements/1.1/"
   xmlns:cc="http://creativecommons.org/ns#"
   xmlns:rdf="http://www.w3.org/1999/02/22-rdf-syntax-ns#"
   xmlns:svg="http://www.w3.org/2000/svg"
   xmlns="http://www.w3.org/2000/svg"
   xmlns:sodipodi="http://sodipodi.sourceforge.net/DTD/sodipodi-0.dtd"
   xmlns:inkscape="http://www.inkscape.org/namespaces/inkscape" width="120mm" height="92.261421mm" viewBox="0 0 120 92.261421" version="1.1" id="svg8" sodipodi:docname="logo.svg" inkscape:version="1.0.2 (e86c870879, 2021-01-15, custom)">
   <defs id="defs2">
      <linearGradient id="linearGradient3164" osb:paint="solid">
         <stop style="stop-color:#008200;stop-opacity:1;" offset="0" id="stop3162" />
      </linearGradient>
      <linearGradient id="linearGradient1192" osb:paint="solid">
         <stop style="stop-color:#008200;stop-opacity:1;" offset="0" id="stop1190" />
      </linearGradient>
      <rect x="68.980652" y="177.36533" width="42.04985" height="27.308781" id="rect3729" />
      <inkscape:path-effect effect="offset" id="path-effect3481" is_visible="true" lpeversion="1" linejoin_type="miter" unit="mm" offset="55" miter_limit="4.3" attempt_force_join="true" update_on_knot_move="true" />
      <inkscape:perspective sodipodi:type="inkscape:persp3d" inkscape:vp_x="-269.1035 : 36.403788 : 0" inkscape:vp_y="0 : 999.99996 : 0" inkscape:vp_z="67.582272 : 82.374156 : 0" inkscape:persp3d-origin="105 : -105.73858 : 1" id="perspective833" />
      <filter style="color-interpolation-filters:sRGB" id="filter3962" inkscape:label="Filter0">
         <feBlend mode="normal" id="feBlend3964" in2="SourceGraphic" />
      </filter>
      <clipPath clipPathUnits="userSpaceOnUse" id="clipPath3504">
         <rect style="font-variation-settings:normal;opacity:0.5;vector-effect:none;fill:#000000;fill-opacity:1;fill-rule:evenodd;stroke-width:2.65009;stroke-linecap:butt;stroke-linejoin:miter;stroke-miterlimit:4;stroke-dasharray:none;stroke-dashoffset:0;stroke-opacity:1;stop-color:#000000;stop-opacity:1" id="rect3506" width="120" height="120" x="40.596573" y="122.29677" />
      </clipPath>
   </defs>
   <sodipodi:namedview id="base" pagecolor="#ffffff" bordercolor="#666666" borderopacity="1.0" inkscape:pageopacity="0.0" inkscape:pageshadow="2" inkscape:zoom="2.8" inkscape:cx="220.12536" inkscape:cy="205.26702" inkscape:document-units="mm" inkscape:current-layer="g3492" inkscape:document-rotation="0" showgrid="false" showguides="true" inkscape:guide-bbox="true" inkscape:window-width="2558" inkscape:window-height="1378" inkscape:window-x="1273" inkscape:window-y="0" inkscape:window-maximized="0">
      <inkscape:grid type="xygrid" id="grid889" originx="-40.596573" originy="-137.24676" />
   </sodipodi:namedview>
   <metadata id="metadata5">
      <rdf:RDF>
         <cc:Work rdf:about="">
            <dc:format>image/svg+xml</dc:format>
            <dc:type rdf:resource="http://purl.org/dc/dcmitype/StillImage" />
            <dc:title></dc:title>
         </cc:Work>
      </rdf:RDF>
   </metadata>
   <g inkscape:label="Grabstein" inkscape:groupmode="layer" id="layer1" transform="translate(-40.596573,-137.24676)">
      <g id="g3463">
         <path id="rect881-6-5" style="font-variation-settings:normal;vector-effect:none;fill:#999999;fill-opacity:1;fill-rule:evenodd;stroke:#666666;stroke-width:0.1;stroke-linecap:butt;stroke-linejoin:miter;stroke-miterlimit:4;stroke-dasharray:none;stroke-dashoffset:0;stroke-opacity:1;stop-color:#000000" inkscape:label="Rückseite" d="m 80.501029,149.565 c -4.235371,4.60947 -7.358113,10.51748 -8.727633,16.84511 -0.322099,1.46768 -0.553633,2.9605 -0.689364,4.46426 v 50.4409 l -15.875,5.9315 h 75.000078 l 15.875,-5.9315 v -50.4409 c -0.0422,-0.40586 -0.0846,-0.81172 -0.12661,-1.21758 -0.71393,-5.45235 -2.54946,-10.5235 -5.43068,-15.05407 -4.76238,-7.57058 -12.44128,-13.0873 -20.29747,-15.55454 m 0,0 c -3.83992,-1.23436 -7.8504,-1.83075 -11.86026,-1.80031 -10.247367,0.0778 -20.489822,4.24816 -27.868061,12.31713" sodipodi:nodetypes="ccccccccccccsc" />
         <path id="rect881-6" style="font-variation-settings:normal;

display:inline;vector-effect:none;fill:#b3b3b3;fill-opacity:1;fill-rule:evenodd;stroke:#cccccc;stroke-width:0.2;stroke-linecap:butt;stroke-linejoin:miter;stroke-miterlimit:4;stroke-dasharray:none;stroke-dashoffset:0;stroke-opacity:1;stop-color:#000000" d="m 92.494094,143.17937 c -10.24731,0.0778 -20.489826,4.24814 -27.868065,12.31713 -4.235363,4.60946 -7.358121,10.51748 -8.727633,16.84511 -0.322099,1.46767 -0.553636,2.9605 -0.689364,4.46426 v 50.4409 h 75.000078 v -50.4409 c -0.0422,-0.40586 -0.0846,-0.81172 -0.12661,-1.21758 -0.71393,-5.45235 -2.54946,-10.52349 -5.43068,-15.05407 -4.76238,-7.57058 -12.44128,-13.0873 -20.29747,-15.55454 -3.83992,-1.23435 -7.850438,-1.83075 -11.860256,-1.80031 z" inkscape:label="Vorderseite" />
      </g>
   </g>
   <g id="g3492" clip-path="url(#clipPath3504)" inkscape:label="Grünzeug" transform="translate(-40.596573,-137.24676)">
      <path id="path3367" style="fill:#12ab60;fill-opacity:1;stroke:#13b465;stroke-width:0.377953;stroke-linecap:butt;stroke-linejoin:miter;stroke-miterlimit:4;stroke-dasharray:none;stroke-opacity:1" d="m 389.43359,822.93945 c -17.41222,0.14982 -34.85226,1.9251 -52.21484,5.67969 -0.52898,0.11021 -1.05387,0.23609 -1.58203,0.34961 21.38257,6.13072 42.45901,13.59631 63.23242,21.60352 12.64781,-8.67869 25.73049,-16.90898 39.29297,-24.0586 -16.16067,-2.41292 -32.43172,-3.71443 -48.72852,-3.57422 z" sodipodi:nodetypes="sccccs" transform="scale(0.26458333)" />
      <path id="path3344" style="fill:#15b267;fill-opacity:1;stroke:#17ba6d;stroke-width:0.1;stroke-linecap:butt;stroke-linejoin:miter;stroke-miterlimit:4;stroke-dasharray:none;stroke-opacity:1" d="m 99.576443,229.31397 c 28.870277,0.048 57.740557,0.0959 86.610837,0.14392 -14.41763,-9.00706 -30.45655,-17.95418 -48.00434,-17.3276 -14.57163,0.58835 -27.26107,8.77696 -38.606497,17.18368 z" />
      <path id="path3369" style="fill:#15b769;fill-opacity:1;stroke:#17bf6f;stroke-width:0.1;stroke-linecap:butt;stroke-linejoin:miter;stroke-miterlimit:4;stroke-dasharray:none;stroke-opacity:1" d="m 29.912086,229.31397 c 28.87028,0.048 57.740559,0.0959 86.610824,0.14392 -18.126338,-7.47884 -37.190369,-14.86717 -57.120804,-14.35702 -11.312658,0.2811 -22.4945,5.13294 -29.49002,14.2131 z" />
   </g>
   <g inkscape:groupmode="layer" id="layer3" inkscape:label="Gravur" style="display:inline" transform="translate(-40.596573,-137.24676)">
      <path id="path4133" style="display:inline;

font-family:sans-serif;font-size:10.5833px;font-style:normal;font-weight:normal;line-height:1.25;letter-spacing:0px;word-spacing:0px;white-space:pre;shape-inside:url(#rect3729);fill:#cccccc;fill-opacity:1;stroke:none;stroke-width:3.10534" d="m 68.20908,172.71252 v 25 h 3.037022 v -9.93995 h 4.278803 l 7.638285,9.93995 h 3.941875 l -8.589131,-10.93059 c 1.451941,-0.61562 2.591724,-1.5274 3.419942,-2.73626 0.828219,-1.22006 1.242818,-2.73146 1.242818,-4.53357 0,-1.33199 -0.235553,-2.42888 -0.705899,-3.29075 -0.460124,-0.87307 -1.103961,-1.5949 -1.932181,-2.16575 -0.736195,-0.5037 -1.564355,-0.85101 -2.4846,-1.04128 -0.920242,-0.20149 -2.070581,-0.3018 -3.450948,-0.3018 z m 20.874155,0 v 2.55178 h 2.991029 v 19.89592 h -2.991029 v 2.5523 h 9.018563 v -2.5523 H 95.110769 V 175.2643 h 2.991029 v -2.55178 z m 14.187235,0 v 25 h 3.03702 v -9.3188 h 3.03651 c 1.63599,0 2.99072,-0.21235 4.06434,-0.63769 1.07362,-0.43653 2.00424,-1.0858 2.79156,-1.94768 0.63395,-0.69398 1.12461,-1.5113 1.47225,-2.45153 0.35789,-0.95142 0.53693,-1.98108 0.53693,-3.08921 0,-1.45511 -0.24031,-2.65818 -0.72089,-3.6096 -0.47034,-0.95142 -1.14005,-1.74632 -2.00918,-2.38435 -0.73619,-0.53727 -1.57967,-0.92887 -2.53059,-1.17512 -0.95092,-0.25744 -2.11129,-0.38602 -3.48143,-0.38602 z m -32.024368,2.85409 h 3.573422 c 0.817993,0 1.528896,0.0672 2.132166,0.20154 0.60327,0.12312 1.124571,0.34667 1.564244,0.67127 0.531695,0.38057 0.909864,0.85111 1.134813,1.41077 0.235174,0.54846 0.35295,1.18067 0.35295,1.89703 0,0.94023 -0.112497,1.71808 -0.337446,2.33372 -0.214725,0.60442 -0.552219,1.14166 -1.012342,1.61178 -0.50102,0.50369 -1.109463,0.85099 -1.825209,1.04128 -0.715746,0.17909 -1.553945,0.2682 -2.515089,0.2682 h -3.067509 z m 35.061388,0 h 3.00601 c 0.96115,0 1.75339,0.0784 2.37712,0.23512 0.63394,0.14552 1.19643,0.39148 1.68724,0.73846 0.56236,0.40296 0.98172,0.92365 1.25779,1.56166 0.27608,0.63801 0.41393,1.38812 0.41393,2.25 0,0.73874 -0.10246,1.40456 -0.30695,1.99781 -0.19428,0.59323 -0.53126,1.15873 -1.01182,1.69601 -0.48058,0.52608 -1.10433,0.91181 -1.87121,1.15807 -0.76687,0.23505 -1.76404,0.35294 -2.99102,0.35294 h -2.56109 z" inkscape:label="Licht" />
      <path id="path148" style="display:inline;

font-family:sans-serif;font-size:10.5833px;font-style:normal;font-weight:normal;line-height:1.25;letter-spacing:0px;word-spacing:0px;white-space:pre;shape-inside:url(#rect3729);fill:#333333;fill-opacity:1;stroke:none;stroke-width:3.10534" d="m 67.209062,172.71251 v 25.00002 h 3.037025 v -9.93996 h 4.278808 l 7.638293,9.93996 h 3.941879 l -8.58914,-10.93059 c 1.451943,-0.61563 2.591726,-1.52741 3.419946,-2.73627 0.82822,-1.22006 1.242819,-2.73147 1.242819,-4.53357 0,-1.33199 -0.235553,-2.42888 -0.7059,-3.29076 -0.460124,-0.87307 -1.103961,-1.5949 -1.932183,-2.16576 -0.736197,-0.50369 -1.564357,-0.85099 -2.484602,-1.04128 -0.920244,-0.20148 -2.070584,-0.30179 -3.450952,-0.30179 z m 20.874178,0 v 2.55178 h 2.991032 v 19.89595 H 88.08324 v 2.55229 h 9.018571 v -2.55229 h -2.991033 v -19.89595 h 2.991033 v -2.55178 z m 14.18724,0 v 25.00002 h 3.03702 v -9.31881 h 3.03651 c 1.63599,0 2.99073,-0.21234 4.06435,-0.63768 1.07362,-0.43654 2.00424,-1.08581 2.79156,-1.94769 0.63395,-0.69397 1.12461,-1.5113 1.47227,-2.45153 0.35787,-0.95142 0.53691,-1.98109 0.53691,-3.08921 0,-1.45512 -0.2403,-2.65818 -0.72089,-3.6096 -0.47033,-0.95142 -1.14005,-1.74634 -2.00918,-2.38435 -0.73618,-0.53728 -1.57966,-0.92887 -2.53059,-1.17512 -0.95092,-0.25745 -2.1113,-0.38603 -3.48144,-0.38603 z m -32.024393,2.85409 h 3.573426 c 0.817994,0 1.528897,0.0672 2.132168,0.20154 0.603271,0.12312 1.124572,0.34667 1.564246,0.67128 0.531696,0.38056 0.909865,0.8511 1.134814,1.41076 0.235175,0.54847 0.352951,1.18068 0.352951,1.89704 0,0.94023 -0.112498,1.71809 -0.337447,2.33371 -0.214725,0.60443 -0.552219,1.14167 -1.012343,1.61179 -0.50102,0.50369 -1.109464,0.85099 -1.82521,1.04128 -0.715748,0.17909 -1.553948,0.2682 -2.515092,0.2682 h -3.067513 z m 35.061413,0 h 3.00603 c 0.96114,0 1.75338,0.0784 2.37712,0.23513 0.63394,0.14551 1.19643,0.39146 1.68723,0.73845 0.56237,0.40296 0.98173,0.92365 1.2578,1.56167 0.27608,0.63801 0.41393,1.38811 0.41393,2.24999 0,0.73875 -0.10246,1.40457 -0.30695,1.99781 -0.19429,0.59324 -0.53127,1.15875 -1.01184,1.69602 -0.48057,0.52608 -1.10433,0.91182 -1.8712,1.15807 -0.76687,0.23505 -1.76403,0.35295 -2.99102,0.35295 h -2.5611 z" inkscape:label="Eingelassener Text" />
      <path id="path4135" style="display:inline;

font-family:sans-serif;font-size:10.5833px;font-style:normal;font-weight:normal;line-height:1.25;letter-spacing:0px;word-spacing:0px;white-space:pre;shape-inside:url(#rect3729);fill:#666666;fill-opacity:1;stroke:none;stroke-width:3.10534" d="m 67.738229,172.71251 v 25.00002 h 3.037025 v -9.93996 h 4.278808 l 7.638293,9.93996 h 3.941879 l -8.58914,-10.93059 c 1.451943,-0.61563 2.591726,-1.52741 3.419946,-2.73627 0.82822,-1.22006 1.242819,-2.73147 1.242819,-4.53357 0,-1.33199 -0.235553,-2.42888 -0.7059,-3.29076 -0.460124,-0.87307 -1.103961,-1.5949 -1.932183,-2.16576 -0.736197,-0.50369 -1.564357,-0.85099 -2.484602,-1.04128 -0.920244,-0.20148 -2.070584,-0.30179 -3.450952,-0.30179 z m 20.874178,0 v 2.55178 h 2.991032 v 19.89595 h -2.991032 v 2.55229 h 9.018571 v -2.55229 h -2.991033 v -19.89595 h 2.991033 v -2.55178 z m 14.187243,0 v 25.00002 h 3.03702 v -9.31881 h 3.03651 c 1.63599,0 2.99073,-0.21234 4.06435,-0.63768 1.07362,-0.43654 2.00424,-1.08581 2.79156,-1.94769 0.63395,-0.69397 1.12461,-1.5113 1.47227,-2.45153 0.35787,-0.95142 0.53691,-1.98109 0.53691,-3.08921 0,-1.45512 -0.2403,-2.65818 -0.72089,-3.6096 -0.47033,-0.95142 -1.14005,-1.74634 -2.00918,-2.38435 -0.73618,-0.53728 -1.57966,-0.92887 -2.53059,-1.17512 -0.95092,-0.25745 -2.1113,-0.38603 -3.48144,-0.38603 z m -32.024396,2.85409 h 3.573426 c 0.817994,0 1.528897,0.0672 2.132168,0.20154 0.603271,0.12312 1.124572,0.34667 1.564246,0.67128 0.531696,0.38056 0.909865,0.8511 1.134814,1.41076 0.235175,0.54847 0.352951,1.18068 0.352951,1.89704 0,0.94023 -0.112498,1.71809 -0.337447,2.33371 -0.214725,0.60443 -0.552219,1.14167 -1.012343,1.61179 -0.50102,0.50369 -1.109464,0.85099 -1.82521,1.04128 -0.715748,0.17909 -1.553948,0.2682 -2.515092,0.2682 h -3.067513 z m 35.061416,0 h 3.00603 c 0.96114,0 1.75338,0.0784 2.37712,0.23513 0.63394,0.14551 1.19643,0.39146 1.68723,0.73845 0.56237,0.40296 0.98173,0.92365 1.2578,1.56167 0.27608,0.63801 0.41393,1.38811 0.41393,2.24999 0,0.73875 -0.10246,1.40457 -0.30695,1.99781 -0.19429,0.59324 -0.53127,1.15875 -1.01184,1.69602 -0.48057,0.52608 -1.10433,0.91182 -1.8712,1.15807 -0.76687,0.23505 -1.76403,0.35295 -2.99102,0.35295 h -2.5611 z" inkscape:label="Schatten" />
   </g>
   <g inkscape:label="Grabstein Kopie" inkscape:groupmode="layer" id="g3636" style="display:none" sodipodi:insensitive="true" transform="translate(-40.596573,-137.24676)">
      <path id="path3632" style="font-variation-settings:normal;vector-effect:none;fill:#999999;fill-opacity:1;fill-rule:evenodd;stroke:none;stroke-width:2.89791;stroke-linecap:butt;stroke-linejoin:miter;stroke-miterlimit:4;stroke-dasharray:none;stroke-dashoffset:0;stroke-opacity:1;stop-color:#000000" inkscape:label="Rückseite" d="m 304.25586,586.33008 c -16.0077,15.54232 -27.81019,35.46313 -32.98633,56.79883 -1.21738,4.94876 -2.09247,9.98231 -2.60547,15.05273 v 170.07813 l -60,20 h 283.46485 l 60,-20 V 658.18164 c -0.1595,-1.36849 -0.31974,-2.73698 -0.47852,-4.10547 -2.69832,-18.38441 -9.63574,-35.48344 -20.52539,-50.75976 -17.99955,-25.52671 -47.02216,-44.12815 -76.71484,-52.44727 m 0,0 c -14.51309,-4.16202 -29.6708,-6.17296 -44.82618,-6.07031 -38.73022,0.2623 -77.44186,14.32402 -105.32812,41.53125" transform="scale(0.26458333)" sodipodi:nodetypes="ccccccccccccsc" />
      <path id="path3634" style="font-variation-settings:normal;

display:inline;vector-effect:none;fill:#b3b3b3;fill-opacity:1;fill-rule:evenodd;stroke:none;stroke-width:2.89791;stroke-linecap:butt;stroke-linejoin:miter;stroke-miterlimit:4;stroke-dasharray:none;stroke-dashoffset:0;stroke-opacity:1;stop-color:#000000" d="m 349.58398,564.79883 c -38.72999,0.26234 -77.44186,14.324 -105.32812,41.53125 -16.00767,15.54232 -27.81022,35.46313 -32.98633,56.79883 -1.21738,4.94876 -2.09248,9.98231 -2.60547,15.05273 V 848.25977 H 492.12891 V 678.18164 c -0.1595,-1.36849 -0.31963,-2.73698 -0.47852,-4.10547 -2.69832,-18.38441 -9.63574,-35.48344 -20.52539,-50.75976 -17.99955,-25.52671 -47.02216,-44.12815 -76.71484,-52.44727 -14.51309,-4.162 -29.67096,-6.17297 -44.82618,-6.07031 z" inkscape:label="Vorderseite" transform="scale(0.26458333)" />
   </g>
   <g id="layer2" inkscape:label="Ebene 2" transform="translate(-40.596573,-137.24676)" />
</svg>
